<svg width="25" height="24" viewBox="0 0 25 24" fill="none" xmlns="http://www.w3.org/2000/svg">
<path d="M22 12.6863V11.3137C22 9.67871 22 8.8612 21.6955 8.12612C21.391 7.39104 20.813 6.81297 19.6569 5.65685L18.8431 4.84315C17.687 3.68702 17.109 3.10896 16.3739 2.80448C15.6388 2.5 14.8213 2.5 13.1863 2.5H11.8137C10.1787 2.5 9.3612 2.5 8.62612 2.80448C7.89104 3.10896 7.31297 3.68702 6.15685 4.84315L5.34315 5.65685C4.18702 6.81298 3.60896 7.39104 3.30448 8.12612C3 8.8612 3 9.67871 3 11.3137V12.6863C3 14.3213 3 15.1388 3.30448 15.8739C3.60896 16.609 4.18702 17.187 5.34315 18.3431L6.15685 19.1569C7.31297 20.313 7.89104 20.891 8.62612 21.1955C9.3612 21.5 10.1787 21.5 11.8137 21.5H13.1863C14.8213 21.5 15.6388 21.5 16.3739 21.1955C17.109 20.891 17.687 20.313 18.8431 19.1569L19.6569 18.3431C20.813 17.187 21.391 16.609 21.6955 15.8739C22 15.1388 22 14.3213 22 12.6863Z" stroke="#E9201D" stroke-width="1.5" stroke-linecap="round" stroke-linejoin="round"/>
<path d="M12.5 8V12.5" stroke="#E9201D" stroke-width="1.5" stroke-linecap="round" stroke-linejoin="round"/>
<path d="M12.5 15.9883V15.9983" stroke="#E9201D" stroke-width="1.5" stroke-linecap="round" stroke-linejoin="round"/>
</svg>
