<svg width="21" height="20" viewBox="0 0 21 20" fill="none" xmlns="http://www.w3.org/2000/svg">
<path d="M18.4163 11.2497C18.4163 13.5472 16.5471 15.4164 14.2496 15.4164H5.49965C5.26965 15.4164 5.08298 15.2297 5.08298 14.9997C5.08298 14.7697 5.26965 14.5831 5.49965 14.5831H14.2496C16.088 14.5831 17.583 13.0881 17.583 11.2497C17.583 9.41139 16.088 7.91639 14.2496 7.91639H4.00551L5.79384 9.70472C5.95634 9.86722 5.95634 10.1314 5.79384 10.2939C5.71217 10.3756 5.6055 10.4156 5.49883 10.4156C5.39217 10.4156 5.2855 10.3747 5.20383 10.2939L2.70383 7.79391C2.6655 7.75558 2.63474 7.70884 2.61391 7.65801C2.57141 7.55634 2.57141 7.44148 2.61391 7.33981C2.63474 7.28814 2.6655 7.24224 2.70383 7.20391L5.20383 4.70391C5.36633 4.54141 5.63052 4.54141 5.79302 4.70391C5.95552 4.86641 5.95552 5.1306 5.79302 5.2931L4.00469 7.08143H14.2488C16.5472 7.0831 18.4163 8.95222 18.4163 11.2497Z" fill="#8D9CDC"/>
</svg>
