<svg width="18" height="18" viewBox="0 0 18 18" fill="none" xmlns="http://www.w3.org/2000/svg">
<path d="M9.5625 0.937501C9.91605 0.937501 10.0933 0.937042 10.2031 1.04688C10.313 1.15671 10.3125 1.33395 10.3125 1.6875V3.23926C10.3125 3.77826 10.3129 4.23885 10.3623 4.60645C10.4151 4.99857 10.5328 5.36873 10.832 5.66797C11.1313 5.96719 11.5014 6.08495 11.8936 6.1377C12.2612 6.18712 12.7217 6.18753 13.2607 6.1875H14.8125C15.1661 6.1875 15.3433 6.18704 15.4531 6.29688C15.563 6.40671 15.5625 6.58395 15.5625 6.9375L15.5625 12.041C15.5625 13.0667 15.563 13.8937 15.4756 14.5439C15.3848 15.219 15.1897 15.7869 14.7383 16.2383C14.2869 16.6897 13.719 16.8848 13.0439 16.9756C12.3937 17.063 11.5667 17.0625 10.541 17.0625L7.45899 17.0625C6.43331 17.0625 5.60627 17.063 4.95606 16.9756C4.281 16.8848 3.71314 16.6897 3.26172 16.2383C2.8103 15.7869 2.61518 15.219 2.52441 14.5439C2.43699 13.8937 2.43749 13.0667 2.4375 12.041L2.4375 5.95899C2.43749 4.9333 2.43699 4.10628 2.52441 3.45606C2.61518 2.781 2.8103 2.21314 3.26172 1.76172C3.71314 1.3103 4.281 1.11518 4.95606 1.02441C5.60628 0.936994 6.43329 0.937485 7.45899 0.937501L9.5625 0.937501ZM6 12.9375C5.68934 12.9375 5.4375 13.1893 5.4375 13.5C5.43763 13.8106 5.68942 14.0625 6 14.0625L10.875 14.0625C11.1856 14.0625 11.4374 13.8106 11.4375 13.5C11.4375 13.1893 11.1857 12.9375 10.875 12.9375L6 12.9375ZM6 10.6875C5.68934 10.6875 5.4375 10.9393 5.4375 11.25C5.43763 11.5606 5.68942 11.8125 6 11.8125L12 11.8125C12.3106 11.8125 12.5624 11.5606 12.5625 11.25C12.5625 10.9393 12.3107 10.6875 12 10.6875L6 10.6875ZM6 8.4375C5.68934 8.4375 5.4375 8.68934 5.4375 9C5.43763 9.31055 5.68942 9.5625 6 9.5625L12 9.5625C12.3106 9.5625 12.5624 9.31055 12.5625 9C12.5625 8.68934 12.3107 8.4375 12 8.4375L6 8.4375ZM11.4414 1.03711C11.6864 1.1386 11.8727 1.32581 12.0449 1.49902L12.0869 1.54199L14.958 4.41309L15.001 4.45508C15.1742 4.6273 15.3614 4.81357 15.4629 5.05859C15.4636 5.06033 15.4618 5.06241 15.46 5.0625L13.2979 5.0625C12.7111 5.0625 12.3276 5.06057 12.0439 5.02246C11.7766 4.98652 11.6834 4.92753 11.6279 4.87207C11.5724 4.81658 11.5125 4.7236 11.4766 4.45606C11.4384 4.17241 11.4375 3.78884 11.4375 3.20215V1.03906C11.4378 1.03728 11.4396 1.03637 11.4414 1.03711Z" fill="white"/>
</svg>
