<svg width="18" height="18" viewBox="0 0 18 18" fill="none" xmlns="http://www.w3.org/2000/svg">
<path d="M8.625 16.5C5.6198 16.5 4.11719 16.5 3.1836 15.4016C2.25 14.3033 2.25 12.5355 2.25 9C2.25 5.46447 2.25 3.6967 3.1836 2.59835C4.11719 1.5 5.6198 1.5 8.625 1.5C11.6302 1.5 13.1328 1.5 14.0664 2.59835C14.8179 3.48249 14.9645 4.80041 14.9931 7.125" stroke="white" stroke-width="1.5" stroke-linecap="round" stroke-linejoin="round"/>
<path d="M6 6H11.25M6 9.75H8.25" stroke="white" stroke-width="1.5" stroke-linecap="round" stroke-linejoin="round"/>
<path d="M14.7069 13.5791C15.3391 13.1189 15.75 12.3731 15.75 11.5312C15.75 10.1333 14.6167 9 13.2188 9H13.0312C11.6333 9 10.5 10.1333 10.5 11.5312C10.5 12.3731 10.9109 13.1189 11.5431 13.5791M14.7069 13.5791C14.2892 13.8831 13.7749 14.0625 13.2188 14.0625H13.0312C12.4751 14.0625 11.9608 13.8831 11.5431 13.5791M14.7069 13.5791L15.144 14.9553C15.3107 15.4802 15.3941 15.7427 15.3713 15.9062C15.3239 16.2463 15.0464 16.4988 14.7189 16.5C14.5616 16.5006 14.3257 16.3768 13.8542 16.1294C13.652 16.0233 13.5509 15.9702 13.4475 15.939C13.2368 15.8755 13.0132 15.8755 12.8025 15.939C12.6991 15.9702 12.598 16.0233 12.3958 16.1294C11.9243 16.3768 11.6884 16.5006 11.5311 16.5C11.2036 16.4988 10.9261 16.2463 10.8787 15.9062C10.8559 15.7427 10.9393 15.4802 11.106 14.9553L11.5431 13.5791" stroke="white" stroke-width="1.5"/>
</svg>
