<svg width="25" height="24" viewBox="0 0 25 24" fill="none" xmlns="http://www.w3.org/2000/svg">
<path d="M20.4999 15C20.4999 16.8638 20.4999 17.7956 20.1954 18.5307C19.7894 19.5108 19.0107 20.2895 18.0306 20.6955C17.2956 21 16.3637 21 14.4999 21H11.5C7.72873 21 5.8431 21 4.67152 19.8284C3.49994 18.6568 3.49996 16.7712 3.5 12.9999L3.50005 6.99983C3.50008 4.79078 5.29087 3 7.49992 3" stroke="#8D9CDC" stroke-width="1.125" stroke-linecap="round" stroke-linejoin="round"/>
<path d="M10.5 8.5L10.9336 12.4689C10.9751 12.8007 11.1789 13.0899 11.4861 13.2219C12.1722 13.5165 13.4569 14 14.5 14C15.543 14 16.8278 13.5165 17.5138 13.2219C17.821 13.0899 18.0249 12.8007 18.0664 12.4689L18.5 8.5M21 7.5V11.2692M14.5 4L7.5 7L14.5 10L21.5 7L14.5 4Z" stroke="#8D9CDC" stroke-width="1.125" stroke-linecap="round" stroke-linejoin="round"/>
</svg>
