<svg width="25" height="24" viewBox="0 0 25 24" fill="none" xmlns="http://www.w3.org/2000/svg">
<path d="M7.61816 2.75C7.87901 2.75 8.09159 2.96182 8.0918 3.22461C8.0918 3.48758 7.87914 3.7002 7.61816 3.7002C5.7283 3.70031 4.19729 5.23421 4.19727 7.125V12.9746C4.19725 14.8263 4.19859 16.1683 4.33594 17.1914C4.4715 18.2007 4.73187 18.8289 5.19922 19.2969C5.66671 19.7649 6.29432 20.0254 7.30273 20.1611C8.32453 20.2987 9.66459 20.2998 11.5137 20.2998H14.4346C15.3481 20.2998 16.01 20.2994 16.5332 20.2637C17.0519 20.2281 17.4006 20.1598 17.6914 20.0391C18.5295 19.6914 19.1949 19.0245 19.542 18.1855C19.6623 17.8947 19.7312 17.5458 19.7666 17.0264C19.7748 16.9056 19.7806 16.8379 19.7852 16.79C19.7896 16.7432 19.795 16.6987 19.7979 16.6406C19.8031 16.5357 19.8027 16.3762 19.8027 15.9248C19.8028 15.6619 20.0155 15.4502 20.2764 15.4502C20.5373 15.4502 20.7499 15.6619 20.75 15.9248V15.96C20.75 16.821 20.751 16.5173 20.7119 17.0908C20.6732 17.6589 20.5932 18.1238 20.417 18.5498C19.9735 19.6217 19.1229 20.4731 18.0527 20.917C17.6277 21.0933 17.1646 21.1732 16.5977 21.2119C16.0421 21.2499 15.353 21.25 14.4688 21.25H11.4424C9.65391 21.25 8.26144 21.2485 7.17676 21.1025C6.06357 20.9527 5.20229 20.6427 4.5293 19.9688C3.85636 19.2948 3.54617 18.4323 3.39648 17.3174C3.25068 16.2312 3.24996 14.8365 3.25 13.0459V7.125C3.25002 4.70828 5.20635 2.75011 7.61816 2.75Z" fill="#E9201D" stroke="#E9201D"/>
<path d="M14.4014 3.77051C14.4642 3.74359 14.5358 3.74359 14.5986 3.77051L21.5986 6.77051C21.6904 6.80996 21.75 6.90008 21.75 7C21.75 7.07496 21.7166 7.14468 21.6611 7.19141L21.5986 7.22949L21.5527 7.24902L21.25 7.37891V11.2695C21.2498 11.4074 21.1379 11.5195 21 11.5195C20.8621 11.5195 20.7502 11.4074 20.75 11.2695V7.59375L20.0527 7.89258L14.5986 10.2295C14.5358 10.2564 14.4642 10.2564 14.4014 10.2295L7.40137 7.22949C7.30958 7.19005 7.25 7.09992 7.25 7C7.25 6.90007 7.30959 6.80995 7.40137 6.77051L14.4014 3.77051Z" fill="#E9201D" stroke="#E9201D"/>
<path d="M9.89453 10.2012L10.1895 12.561C10.2616 13.1374 10.6208 13.6655 11.1903 13.9101C11.8768 14.2049 13.288 14.7491 14.5001 14.7491C15.7122 14.7491 17.1234 14.2049 17.8099 13.9101C18.3794 13.6655 18.7387 13.1374 18.8107 12.561L19.1057 10.2012L15.2879 11.8373C14.7848 12.053 14.2154 12.053 13.7123 11.8373L9.89453 10.2012Z" fill="#E9201D"/>
</svg>
