<svg width="21" height="20" viewBox="0 0 21 20" fill="none" xmlns="http://www.w3.org/2000/svg">
<path fill-rule="evenodd" clip-rule="evenodd" d="M1.5 9.99967C1.5 4.93707 5.4399 0.833008 10.3 0.833008C15.1601 0.833008 19.1 4.93707 19.1 9.99967C19.1 15.0623 15.1601 19.1663 10.3 19.1663C5.4399 19.1663 1.5 15.0623 1.5 9.99967ZM4.67448 5.31827C3.68918 6.60133 3.1 8.22883 3.1 9.99967C3.1 14.1418 6.32355 17.4997 10.3 17.4997C12 17.4997 13.5624 16.8859 14.7942 15.8596L4.67448 5.31827ZM5.80585 4.13976L15.9255 14.6811C16.9108 13.398 17.5 11.7705 17.5 9.99967C17.5 5.85754 14.2765 2.49967 10.3 2.49967C8.6 2.49967 7.03759 3.1134 5.80585 4.13976Z" fill="white"/>
</svg>
