<svg width="18" height="18" viewBox="0 0 18 18" fill="none" xmlns="http://www.w3.org/2000/svg">
<path d="M9.5625 0.9375C9.91605 0.9375 10.0933 0.93704 10.2031 1.04687C10.313 1.15671 10.3125 1.33395 10.3125 1.6875V3.23926C10.3125 3.77825 10.3129 4.23885 10.3623 4.60645C10.4151 4.99865 10.5327 5.36867 10.832 5.66797C11.1313 5.96727 11.5014 6.08494 11.8936 6.1377C12.2612 6.18712 12.7217 6.18753 13.2607 6.1875H14.8125C15.1661 6.1875 15.3433 6.18704 15.4531 6.29687C15.563 6.40671 15.5625 6.58395 15.5625 6.9375L15.5625 12.041C15.5625 13.0666 15.563 13.8938 15.4756 14.5439C15.3848 15.219 15.1897 15.7878 14.7383 16.2393C14.2869 16.6904 13.7188 16.8848 13.0439 16.9756C12.3937 17.063 11.5667 17.0625 10.541 17.0625L7.45898 17.0625C6.43331 17.0625 5.60627 17.063 4.95605 16.9756C4.2812 16.8848 3.71307 16.6904 3.26172 16.2393C2.81028 15.7878 2.61518 15.219 2.52441 14.5439C2.43702 13.8937 2.43748 13.0666 2.4375 12.041L2.4375 5.95898C2.43748 4.93334 2.437 4.10626 2.52441 3.45605C2.61519 2.7811 2.81035 2.21309 3.26172 1.76172C3.7131 1.3104 4.2811 1.11615 4.95605 1.02539C5.60628 0.93797 6.43329 0.937485 7.45898 0.9375L9.5625 0.9375ZM6 12.9375C5.68934 12.9375 5.4375 13.1893 5.4375 13.5C5.4375 13.8107 5.68934 14.0625 6 14.0625L10.875 14.0625C11.1857 14.0625 11.4375 13.8107 11.4375 13.5C11.4375 13.1893 11.1857 12.9375 10.875 12.9375L6 12.9375ZM6 10.6875C5.68934 10.6875 5.4375 10.9393 5.4375 11.25C5.4375 11.5607 5.68934 11.8125 6 11.8125L12 11.8125C12.3107 11.8125 12.5625 11.5607 12.5625 11.25C12.5625 10.9393 12.3107 10.6875 12 10.6875L6 10.6875ZM6 8.4375C5.68934 8.4375 5.4375 8.68934 5.4375 9C5.4375 9.31066 5.68934 9.5625 6 9.5625L12 9.5625C12.3107 9.5625 12.5625 9.31066 12.5625 9C12.5625 8.68934 12.3107 8.4375 12 8.4375L6 8.4375ZM11.4414 1.03809C11.6864 1.13957 11.8727 1.32582 12.0449 1.49902L12.0869 1.54199L14.958 4.41309L15.001 4.45508C15.1742 4.6273 15.3614 4.81357 15.4629 5.05859C15.4636 5.06033 15.4618 5.06241 15.46 5.0625L13.2979 5.0625C12.7112 5.0625 12.3276 5.06153 12.0439 5.02344C11.7764 4.98747 11.6834 4.92756 11.6279 4.87207C11.5724 4.81658 11.5125 4.7236 11.4766 4.45605C11.4385 4.1724 11.4375 3.78882 11.4375 3.20215V1.04004C11.4378 1.03825 11.4396 1.03735 11.4414 1.03809Z" fill="white"/>
</svg>
