<svg width="20" height="20" viewBox="0 0 20 20" fill="none" xmlns="http://www.w3.org/2000/svg">
<path fill-rule="evenodd" clip-rule="evenodd" d="M10.8376 3.75033C10.8376 3.29009 10.4644 2.91699 10.0043 2.91699C9.54401 2.91699 9.17093 3.29009 9.17093 3.75033V9.16699H8.67568C8.52935 9.16691 8.3496 9.16674 8.20257 9.18516L8.19979 9.18549C8.09441 9.19866 7.61438 9.25849 7.38575 9.72983C7.15661 10.2022 7.40822 10.619 7.46266 10.7092L7.46469 10.7125C7.54153 10.8401 7.65332 10.9824 7.74527 11.0996L7.76506 11.1247C8.01058 11.438 8.32889 11.8415 8.64593 12.1673C8.8041 12.3299 8.98518 12.4976 9.1776 12.63C9.3486 12.7477 9.64043 12.917 9.99935 12.917C10.3583 12.917 10.6501 12.7477 10.8211 12.63C11.0135 12.4976 11.1946 12.3299 11.3528 12.1673C11.6698 11.8415 11.9881 11.438 12.2337 11.1247L12.2534 11.0996C12.3453 10.9824 12.4572 10.8401 12.534 10.7125L12.536 10.7092C12.5904 10.619 12.8421 10.2022 12.6129 9.72983C12.3843 9.25849 11.9043 9.19866 11.7989 9.18549L11.7961 9.18516C11.6491 9.16674 11.4693 9.16691 11.323 9.16699H10.8376V3.75033Z" fill="#E9201D"/>
<path fill-rule="evenodd" clip-rule="evenodd" d="M3.33333 12.917C3.79357 12.917 4.16667 13.2901 4.16667 13.7503C4.16667 14.2494 4.1938 14.5925 4.24702 14.8347C4.29817 15.0676 4.36143 15.1512 4.39697 15.1867C4.43249 15.2222 4.51611 15.2855 4.74893 15.3367C4.9912 15.3898 5.33428 15.417 5.83333 15.417H14.1667C14.6657 15.417 15.0088 15.3898 15.2511 15.3367C15.4839 15.2855 15.5675 15.2222 15.603 15.1867C15.6386 15.1512 15.7018 15.0676 15.753 14.8347C15.8062 14.5925 15.8333 14.2494 15.8333 13.7503C15.8333 13.2901 16.2064 12.917 16.6667 12.917C17.1269 12.917 17.5 13.2901 17.5 13.7503C17.5 14.2854 17.4732 14.7719 17.3808 15.1923C17.2864 15.6222 17.1125 16.0342 16.7816 16.3652C16.4506 16.6962 16.0385 16.8701 15.6087 16.9645C15.1882 17.0568 14.7017 17.0837 14.1667 17.0837H5.83333C5.29822 17.0837 4.81172 17.0568 4.39132 16.9645C3.9615 16.8701 3.54938 16.6962 3.21845 16.3652C2.88752 16.0342 2.7136 15.6222 2.61917 15.1923C2.52682 14.7719 2.5 14.2854 2.5 13.7503C2.5 13.2901 2.8731 12.917 3.33333 12.917Z" fill="#E9201D"/>
</svg>
