<svg width="37" height="36" viewBox="0 0 37 36" fill="none" xmlns="http://www.w3.org/2000/svg">
<g clip-path="url(#clip0_5237_3673)">
<path d="M33.7506 14.4169C33.5807 14.11 33.3315 13.8543 33.0291 13.6766C32.7266 13.4988 32.3821 13.4054 32.0312 13.4063H13.3754C12.7464 13.4064 12.1344 13.6105 11.6313 13.988C11.1282 14.3654 10.7611 14.8959 10.585 15.4997L6.89228 28.1588C6.69791 28.8251 6.29266 29.4105 5.73736 29.827C5.18205 30.2435 4.50665 30.4687 3.8125 30.4688H27.2721C27.9664 30.4687 28.6419 30.2436 29.1973 29.8271C29.7527 29.4106 30.1581 28.8252 30.3526 28.1588L33.8976 16.005C33.98 15.7438 34.0095 15.4689 33.9843 15.1962C33.9592 14.9235 33.8793 14.6586 33.7506 14.4169Z" fill="#E9201D"/>
<path d="M5.63031 27.7912L9.325 15.1322C9.5824 14.257 10.1156 13.4885 10.8452 12.941C11.5749 12.3934 12.4619 12.0963 13.3741 12.0938H30.0625V11.4375C30.0625 10.7413 29.7859 10.0736 29.2937 9.58134C28.8014 9.08906 28.1337 8.8125 27.4375 8.8125H17.4336C17.238 8.81254 17.0449 8.76897 16.8682 8.68497C16.6916 8.60096 16.5359 8.47863 16.4125 8.32688L15.1223 6.74072C14.815 6.36289 14.4274 6.0583 13.9876 5.84908C13.5479 5.63987 13.067 5.53129 12.58 5.53125H5.125C4.42881 5.53125 3.76113 5.80781 3.26884 6.30009C2.77656 6.79238 2.5 7.46006 2.5 8.15625L2.5 27.8438C2.5 28.1918 2.63828 28.5257 2.88442 28.7718C3.13056 29.018 3.4644 29.1562 3.8125 29.1562C4.22217 29.1551 4.6205 29.0216 4.94809 28.7756C5.27568 28.5296 5.51498 28.1843 5.63031 27.7912Z" fill="#E9201D"/>
</g>
<defs>
<clipPath id="clip0_5237_3673">
<rect width="31.5" height="31.5" fill="white" transform="translate(2.5 2.25)"/>
</clipPath>
</defs>
</svg>
