<svg width="19" height="18" viewBox="0 0 19 18" fill="none" xmlns="http://www.w3.org/2000/svg">
<g clip-path="url(#clip0_7710_990)">
<path d="M17.0003 7.20844C16.9153 7.05499 16.7907 6.92716 16.6395 6.83828C16.4883 6.7494 16.316 6.70272 16.1406 6.70313H6.81269C6.4982 6.70319 6.19222 6.80525 5.94066 6.99398C5.6891 7.18271 5.50553 7.44793 5.4175 7.74985L3.57114 14.0794C3.47395 14.4126 3.27133 14.7052 2.99368 14.9135C2.71603 15.1218 2.37832 15.2343 2.03125 15.2344H13.7611C14.1082 15.2344 14.4459 15.1218 14.7236 14.9135C15.0013 14.7053 15.204 14.4126 15.3013 14.0794L17.0738 8.0025C17.115 7.87192 17.1297 7.73445 17.1172 7.59811C17.1046 7.46176 17.0647 7.3293 17.0003 7.20844Z" fill="white"/>
<path d="M2.94016 13.8956L4.7875 7.56609C4.9162 7.12852 5.18281 6.74423 5.54762 6.47048C5.91244 6.19672 6.35593 6.04814 6.81203 6.04687H15.1562V5.71875C15.1562 5.37065 15.018 5.03681 14.7718 4.79067C14.5257 4.54453 14.1918 4.40625 13.8437 4.40625H8.84181C8.74401 4.40627 8.64744 4.38449 8.55912 4.34248C8.4708 4.30048 8.39295 4.23931 8.33125 4.16344L7.68615 3.37036C7.53252 3.18145 7.33871 3.02915 7.11882 2.92454C6.89894 2.81993 6.6585 2.76565 6.415 2.76562H2.6875C2.3394 2.76563 2.00556 2.90391 1.75942 3.15005C1.51328 3.39619 1.375 3.73003 1.375 4.07812L1.375 13.9219C1.375 14.0959 1.44414 14.2628 1.56721 14.3859C1.69028 14.509 1.8572 14.5781 2.03125 14.5781C2.23608 14.5776 2.43525 14.5108 2.59904 14.3878C2.76284 14.2648 2.88249 14.0922 2.94016 13.8956Z" fill="white"/>
</g>
<defs>
<clipPath id="clip0_7710_990">
<rect width="15.75" height="15.75" fill="white" transform="translate(1.375 1.125)"/>
</clipPath>
</defs>
</svg>
