<svg width="25" height="24" viewBox="0 0 25 24" fill="none" xmlns="http://www.w3.org/2000/svg">
<path d="M12.9005 1.75C13.6877 1.75 14.3818 2.01975 15.1124 2.45996C15.8184 2.88535 16.6239 3.51175 17.627 4.29199L17.6583 4.31641L19.6583 5.87207L20.5304 6.55566C21.3232 7.19264 21.8803 7.72021 22.2179 8.41016L22.297 8.58496C22.6658 9.46446 22.6505 10.4822 22.6505 11.9893V14.5576C22.6505 16.1592 22.6505 17.4378 22.5157 18.4404C22.3851 19.4121 22.117 20.223 21.5274 20.877L21.4054 21.0049C20.7302 21.68 19.8771 21.9759 18.8409 22.1152C17.8383 22.25 16.5596 22.25 14.9581 22.25H10.8429C9.24127 22.25 7.96269 22.25 6.96005 22.1152C5.98838 21.9846 5.17743 21.7165 4.52352 21.127L4.3956 21.0049C3.72049 20.3298 3.42456 19.4767 3.28524 18.4404C3.18293 17.6794 3.15838 16.7596 3.15243 15.6602L3.15048 14.5V11.9893C3.15048 10.3817 3.13309 9.33028 3.5831 8.41016C4.0332 7.49024 4.87383 6.85894 6.14267 5.87207L8.14267 4.31641L8.86923 3.75293C9.56124 3.22012 10.1535 2.78235 10.6886 2.45996C11.4192 2.01974 12.1133 1.75002 12.9005 1.75ZM16.6895 16.3857C16.3715 15.9773 15.7995 15.883 15.3702 16.1523L15.2862 16.2109C14.6655 16.694 13.8321 17 12.9005 17C12.0852 16.9999 11.345 16.7661 10.7569 16.3838L10.5147 16.2109L10.4308 16.1523C10.0014 15.8832 9.42942 15.9772 9.11142 16.3857C8.79345 16.7944 8.8424 17.3726 9.20907 17.7227L9.28622 17.7891L9.47274 17.9277C10.4231 18.6047 11.6172 18.9999 12.9005 19C14.2691 19 15.5365 18.5505 16.5147 17.7891L16.5919 17.7227C16.9587 17.3725 17.0077 16.7945 16.6895 16.3857Z" fill="#E9201D"/>
</svg>
