<svg width="16" height="16" viewBox="0 0 16 16" fill="none" xmlns="http://www.w3.org/2000/svg">
<path d="M8.66536 9.33301C7.33203 13.333 2.66536 9.33301 1.33203 13.333" stroke="#E9201D" stroke-linecap="round" stroke-linejoin="round"/>
<path d="M10.6654 10.667H13.3335C14.0698 10.667 14.6668 10.0701 14.6668 9.33366V4.00033C14.6668 3.26395 14.0698 2.66699 13.3335 2.66699H6.66623C5.93053 2.66699 5.33386 3.26289 5.3329 3.99859L5.33203 4.66699" stroke="#E9201D" stroke-linecap="round" stroke-linejoin="round"/>
<path d="M5.33333 9.33366C6.06971 9.33366 6.66667 8.73671 6.66667 8.00033C6.66667 7.26395 6.06971 6.66699 5.33333 6.66699C4.59695 6.66699 4 7.26395 4 8.00033C4 8.73671 4.59695 9.33366 5.33333 9.33366Z" stroke="#E9201D" stroke-linecap="round" stroke-linejoin="round"/>
<path d="M8 5.33301H12M12 7.99967H10.3333" stroke="#E9201D" stroke-linecap="round" stroke-linejoin="round"/>
</svg>
