<svg width="18" height="18" viewBox="0 0 18 18" fill="none" xmlns="http://www.w3.org/2000/svg">
<path d="M15.75 8.625V13.6875C15.75 14.205 15.33 14.625 14.8125 14.625C14.295 14.625 13.875 14.205 13.875 13.6875V7.5H14.625C15.246 7.5 15.75 8.004 15.75 8.625ZM14.25 15.75H4.5C3 15.75 2.25 15 2.25 13.5V4.5C2.25 3 3 2.25 4.5 2.25H10.5C12 2.25 12.75 3 12.75 4.5V14.25C12.75 15.078 13.4212 15.75 14.25 15.75ZM4.6875 5.46753C4.6875 5.77878 4.78874 6.08329 4.97099 6.32254C5.15774 6.57154 5.42475 6.75147 5.72475 6.82947L6.42151 7.00946C6.53626 7.03946 6.61652 7.15197 6.61652 7.28247C6.61652 7.38747 6.56552 7.45579 6.53627 7.48654C6.50327 7.52104 6.44626 7.56226 6.36676 7.56226H6.06299C5.93849 7.56226 5.82974 7.45271 5.81474 7.31396C5.78099 7.00496 5.50727 6.78228 5.19452 6.81528C4.88552 6.84828 4.66274 7.12645 4.69574 7.43545C4.75649 7.99945 5.13901 8.44954 5.64226 8.61529V8.625C5.64226 8.9355 5.89426 9.1875 6.20476 9.1875C6.51526 9.1875 6.76726 8.9355 6.76726 8.625V8.61978C6.98251 8.55228 7.18125 8.43754 7.3455 8.26804C7.6005 8.00254 7.74074 7.65304 7.74074 7.28329C7.74074 6.64129 7.31552 6.08176 6.70427 5.92126L6.00673 5.74127C5.93923 5.72327 5.89573 5.68048 5.86798 5.64523C5.83273 5.59873 5.81177 5.53426 5.81177 5.46826C5.81177 5.31376 5.92348 5.18774 6.06148 5.18774H6.36525C6.49125 5.18774 6.59849 5.29428 6.61349 5.43603C6.64649 5.74503 6.91801 5.96547 7.23376 5.93472C7.54276 5.90172 7.7655 5.62354 7.7325 5.31454C7.671 4.74379 7.27948 4.28999 6.76648 4.12949V4.12573C6.76648 3.81523 6.51448 3.56323 6.20398 3.56323C5.89348 3.56323 5.64148 3.81523 5.64148 4.12573V4.13699C5.09023 4.31924 4.6875 4.84353 4.6875 5.46753ZM8.0625 12.75C8.0625 12.4395 7.8105 12.1875 7.5 12.1875H5.25C4.9395 12.1875 4.6875 12.4395 4.6875 12.75C4.6875 13.0605 4.9395 13.3125 5.25 13.3125H7.5C7.8105 13.3125 8.0625 13.0605 8.0625 12.75ZM10.3125 10.5C10.3125 10.1895 10.0605 9.9375 9.75 9.9375H5.25C4.9395 9.9375 4.6875 10.1895 4.6875 10.5C4.6875 10.8105 4.9395 11.0625 5.25 11.0625H9.75C10.0605 11.0625 10.3125 10.8105 10.3125 10.5Z" fill="white"/>
</svg>
