<svg width="37" height="36" viewBox="0 0 37 36" fill="none" xmlns="http://www.w3.org/2000/svg">
<path d="M17.0344 8.4991C17.0929 8.5801 17.1245 8.68059 17.1245 8.78109V28.572C17.1245 28.9095 16.769 29.1135 16.4675 28.9635C12.89 27.1785 9.3004 27.1831 5.7229 28.2016C5.2279 28.3366 4.74805 27.9917 4.74805 27.4967V7.98165C4.74805 7.69215 4.91442 7.41914 5.17542 7.29464C7.63841 6.12164 10.25 5.79001 12.968 6.12001C14.6555 6.32401 16.0999 7.2166 17.0344 8.4991ZM31.7495 7.98V27.495C31.7495 27.99 31.2697 28.3352 30.7747 28.2002C27.1987 27.1817 23.609 27.1771 20.03 28.9621C19.7285 29.1121 19.373 28.9081 19.373 28.5706V8.77962C19.373 8.67912 19.4046 8.57864 19.4631 8.49764C20.3976 7.21514 21.8436 6.32255 23.5281 6.11855C26.2461 5.78855 28.8592 6.11867 31.3207 7.29317C31.5832 7.41767 31.7495 7.6905 31.7495 7.98ZM26.8745 18.0001C26.8745 17.3791 26.3705 16.8751 25.7495 16.8751H22.7495C22.1285 16.8751 21.6245 17.3791 21.6245 18.0001C21.6245 18.6211 22.1285 19.1251 22.7495 19.1251H25.7495C26.3705 19.1251 26.8745 18.6211 26.8745 18.0001ZM28.3745 13.5001C28.3745 12.8791 27.8705 12.3751 27.2495 12.3751H22.7495C22.1285 12.3751 21.6245 12.8791 21.6245 13.5001C21.6245 14.1211 22.1285 14.6251 22.7495 14.6251H27.2495C27.8705 14.6251 28.3745 14.1211 28.3745 13.5001Z" fill="#E9201D"/>
</svg>
