<svg width="25" height="24" viewBox="0 0 25 24" fill="none" xmlns="http://www.w3.org/2000/svg">
<path d="M14.4714 20.3905C18.6544 20.1125 21.9864 16.7332 22.2606 12.4909C22.3142 11.6607 22.3142 10.8009 22.2606 9.9707C21.9864 5.72838 18.6544 2.34913 14.4714 2.07107C13.0443 1.97621 11.5544 1.97641 10.1302 2.07107C5.94717 2.34913 2.61519 5.72838 2.34102 9.9707C2.28737 10.8009 2.28737 11.6607 2.34102 12.4909C2.44088 14.036 3.12421 15.4666 3.92869 16.6746C4.39579 17.5203 4.08752 18.5758 3.60099 19.4978C3.25019 20.1626 3.07479 20.495 3.21562 20.7351C3.35646 20.9752 3.67104 20.9829 4.30021 20.9982C5.54445 21.0285 6.38346 20.6757 7.04946 20.1846C7.42718 19.9061 7.61605 19.7668 7.74622 19.7508C7.87638 19.7348 8.13255 19.8403 8.64479 20.0513C9.10518 20.2409 9.63974 20.3579 10.1302 20.3905C11.5544 20.4852 13.0443 20.4854 14.4714 20.3905Z" stroke="#8D9CDC" stroke-width="1.125" stroke-linejoin="round"/>
<path d="M8.80078 14H15.8008M8.80078 9H12.3008" stroke="#8D9CDC" stroke-width="1.125" stroke-linecap="round" stroke-linejoin="round"/>
</svg>
