<svg width="25" height="24" viewBox="0 0 25 24" fill="none" xmlns="http://www.w3.org/2000/svg">
<path fill-rule="evenodd" clip-rule="evenodd" d="M14.2711 2.07272C12.8109 1.97566 11.2986 1.97586 9.84129 2.07272C5.27593 2.3762 1.64058 6.06128 1.34258 10.6723C1.28685 11.5347 1.28685 12.4269 1.34258 13.2893C1.45374 15.0093 2.181 16.4947 3.03328 17.8078C3.32063 18.35 3.2322 18.8659 2.68767 19.8978C2.59414 20.075 2.51528 20.2142 2.44666 20.3352L2.4206 20.3812C2.3545 20.498 2.27643 20.636 2.22247 20.7674C2.16072 20.9178 2.10512 21.1168 2.13355 21.3538C2.15991 21.5736 2.25027 21.7479 2.3187 21.8646C2.40239 22.0072 2.51797 22.143 2.67894 22.2507C2.83396 22.3545 2.99594 22.4087 3.14069 22.4399C3.3979 22.4953 3.71624 22.4982 4.04135 22.4982C5.45613 22.5307 6.45389 22.1213 7.24454 21.5383C7.40478 21.4201 7.51386 21.34 7.5957 21.2839C7.67084 21.3125 7.76031 21.3498 7.88213 21.4006C7.94743 21.4278 8.02254 21.4591 8.10919 21.4948C8.65058 21.7178 9.26552 21.8513 9.83043 21.8888C11.2877 21.9857 12.8109 21.986 14.2711 21.8888C18.8378 21.5854 22.4611 17.8989 22.759 13.2892C22.8147 12.4268 22.8147 11.5347 22.759 10.6723C22.4611 6.06258 18.8378 2.37628 14.2711 2.07272ZM8.55078 9C8.13657 9 7.80078 9.33579 7.80078 9.75C7.80078 10.1642 8.13657 10.5 8.55078 10.5H12.0508C12.465 10.5 12.8008 10.1642 12.8008 9.75C12.8008 9.33579 12.465 9 12.0508 9H8.55078ZM8.55078 14C8.13657 14 7.80078 14.3358 7.80078 14.75C7.80078 15.1642 8.13657 15.5 8.55078 15.5H15.5508C15.965 15.5 16.3008 15.1642 16.3008 14.75C16.3008 14.3358 15.965 14 15.5508 14H8.55078Z" fill="#E9201D"/>
</svg>
