<svg width="37" height="36" viewBox="0 0 37 36" fill="none" xmlns="http://www.w3.org/2000/svg">
<path d="M26.25 4.5H11.25C8.25 4.5 6.75 6 6.75 9V27C6.75 30 8.25 31.5 11.25 31.5H26.25C29.25 31.5 30.75 30 30.75 27V9C30.75 6 29.25 4.5 26.25 4.5ZM15.795 23.796L13.7955 25.7955C13.5765 26.0145 13.2885 26.1255 13.0005 26.1255C12.714 26.1255 12.4244 26.016 12.2054 25.797L11.205 24.7965C10.7655 24.357 10.7655 23.6445 11.205 23.205C11.643 22.767 12.3555 22.7655 12.7965 23.205L13.002 23.4105L14.2064 22.206C14.6459 21.7665 15.3585 21.7665 15.798 22.206C16.2375 22.6455 16.2345 23.3565 15.795 23.796ZM15.795 17.796L13.7955 19.7955C13.5765 20.0145 13.2885 20.1255 13.0005 20.1255C12.714 20.1255 12.4244 20.016 12.2054 19.797L11.205 18.7965C10.7655 18.357 10.7655 17.6445 11.205 17.205C11.643 16.767 12.3555 16.7655 12.7965 17.205L13.002 17.4105L14.2064 16.206C14.6459 15.7665 15.3585 15.7665 15.798 16.206C16.2375 16.6455 16.2345 17.3565 15.795 17.796ZM15.795 11.796L13.7955 13.7955C13.5765 14.0145 13.2885 14.1255 13.0005 14.1255C12.714 14.1255 12.4244 14.016 12.2054 13.797L11.205 12.7965C10.7655 12.357 10.7655 11.6445 11.205 11.205C11.643 10.767 12.3555 10.7655 12.7965 11.205L13.002 11.4105L14.2064 10.206C14.6459 9.76652 15.3585 9.76652 15.798 10.206C16.2375 10.6455 16.2345 11.3565 15.795 11.796ZM25.5 25.125H19.5C18.879 25.125 18.375 24.621 18.375 24C18.375 23.379 18.879 22.875 19.5 22.875H25.5C26.121 22.875 26.625 23.379 26.625 24C26.625 24.621 26.121 25.125 25.5 25.125ZM25.5 19.125H19.5C18.879 19.125 18.375 18.621 18.375 18C18.375 17.379 18.879 16.875 19.5 16.875H25.5C26.121 16.875 26.625 17.379 26.625 18C26.625 18.621 26.121 19.125 25.5 19.125ZM25.5 13.125H19.5C18.879 13.125 18.375 12.621 18.375 12C18.375 11.379 18.879 10.875 19.5 10.875H25.5C26.121 10.875 26.625 11.379 26.625 12C26.625 12.621 26.121 13.125 25.5 13.125Z" fill="#E9201D"/>
</svg>
