<svg width="18" height="18" viewBox="0 0 18 18" fill="none" xmlns="http://www.w3.org/2000/svg">
<path d="M7.92547 2.23145C7.63244 2.47114 7.43761 2.81009 7.37797 3.18395C7.35343 3.29928 7.30204 3.4072 7.22797 3.49895C7.15706 3.59427 7.06452 3.67139 6.95797 3.72395L6.36547 4.00895C5.89048 4.24236 5.46909 4.57181 5.12797 4.97645C4.07797 6.22895 4.07797 6.79145 4.07797 8.92895C4.07797 9.89645 3.05047 10.7739 2.78047 11.6439C2.61547 12.1614 2.52547 13.3314 3.89047 13.3314H14.0755C14.275 13.3401 14.4735 13.2989 14.653 13.2114C14.8318 13.1224 14.9863 12.9911 15.103 12.8289C15.214 12.6654 15.283 12.4772 15.3055 12.2814C15.3224 12.0814 15.2889 11.8802 15.208 11.6964C14.938 10.8789 13.8655 9.90395 13.8655 8.93645V7.33895" stroke="white" stroke-width="1.5" stroke-linecap="round" stroke-linejoin="round"/>
<path d="M11.4192 13.3311C11.4214 13.6513 11.3629 13.9693 11.2467 14.2686C11.1209 14.5648 10.9402 14.8345 10.7142 15.0636C10.4855 15.2929 10.2128 15.4736 9.91249 15.5947C9.61217 15.7159 9.29043 15.775 8.96666 15.7686C8.64222 15.7706 8.32074 15.7068 8.02166 15.5811C7.42199 15.3301 6.94515 14.8532 6.69416 14.2536C6.57651 13.9604 6.51789 13.6469 6.52166 13.3311" stroke="white" stroke-width="1.5" stroke-linecap="round" stroke-linejoin="round"/>
<path d="M11.4199 5.98145C12.4555 5.98145 13.2949 5.14198 13.2949 4.10645C13.2949 3.07091 12.4555 2.23145 11.4199 2.23145C10.3844 2.23145 9.54492 3.07091 9.54492 4.10645C9.54492 5.14198 10.3844 5.98145 11.4199 5.98145Z" stroke="white" stroke-width="1.5"/>
</svg>
