<svg width="24" height="24" viewBox="0 0 24 24" fill="none" xmlns="http://www.w3.org/2000/svg">
<path d="M3.99609 12.9988L4.01603 3.99655C4.01847 2.89284 4.91454 1.99975 6.01825 2.00098L12.9919 2.00874L19.9961 8.99579L19.9883 12.9988M12.9961 2.49876V6.99876C12.9961 8.10333 13.8915 8.99876 14.9961 8.99876H19.4961" stroke="#5F6CA0" stroke-width="1.5" stroke-linecap="round" stroke-linejoin="round"/>
<path d="M19.4961 16.749C19.9103 16.749 20.2461 16.4132 20.2461 15.999C20.2461 15.5848 19.9103 15.249 19.4961 15.249V16.749ZM15.9961 15.999V15.249C15.5819 15.249 15.2461 15.5848 15.2461 15.999H15.9961ZM15.2461 21.999C15.2461 22.4132 15.5819 22.749 15.9961 22.749C16.4103 22.749 16.7461 22.4132 16.7461 21.999H15.2461ZM18.9961 19.749C19.4103 19.749 19.7461 19.4132 19.7461 18.999C19.7461 18.5848 19.4103 18.249 18.9961 18.249V19.749ZM3.99609 15.999V15.249C3.58188 15.249 3.24609 15.5848 3.24609 15.999H3.99609ZM3.24609 21.999C3.24609 22.4132 3.58188 22.749 3.99609 22.749C4.4103 22.749 4.74609 22.4132 4.74609 21.999H3.24609ZM9.99609 15.999V15.249C9.58188 15.249 9.24609 15.5848 9.24609 15.999H9.99609ZM9.99609 21.999H9.24609C9.24609 22.4132 9.58188 22.749 9.99609 22.749V21.999ZM19.4961 15.249H15.9961V16.749H19.4961V15.249ZM15.2461 15.999V18.999H16.7461V15.999H15.2461ZM15.2461 18.999V21.999H16.7461V18.999H15.2461ZM15.9961 19.749H18.9961V18.249H15.9961V19.749ZM3.99609 16.749H5.74609V15.249H3.99609V16.749ZM4.74609 21.999V19.499H3.24609V21.999H4.74609ZM4.74609 19.499V15.999H3.24609V19.499H4.74609ZM5.74609 18.749H3.99609V20.249H5.74609V18.749ZM6.74609 17.749C6.74609 18.3013 6.29837 18.749 5.74609 18.749V20.249C7.1268 20.249 8.24609 19.1297 8.24609 17.749H6.74609ZM5.74609 16.749C6.29837 16.749 6.74609 17.1967 6.74609 17.749H8.24609C8.24609 16.3683 7.1268 15.249 5.74609 15.249V16.749ZM9.99609 16.749H11.4961V15.249H9.99609V16.749ZM12.7461 17.999V19.999H14.2461V17.999H12.7461ZM11.4961 21.249H9.99609V22.749H11.4961V21.249ZM10.7461 21.999V15.999H9.24609V21.999H10.7461ZM12.7461 19.999C12.7461 20.6894 12.1865 21.249 11.4961 21.249V22.749C13.0149 22.749 14.2461 21.5178 14.2461 19.999H12.7461ZM11.4961 16.749C12.1865 16.749 12.7461 17.3086 12.7461 17.999H14.2461C14.2461 16.4802 13.0149 15.249 11.4961 15.249V16.749Z" fill="#5F6CA0"/>
</svg>
