<svg width="37" height="36" viewBox="0 0 37 36" fill="none" xmlns="http://www.w3.org/2000/svg">
<path d="M18.75 21.75V19.5C18.75 18.6716 19.4216 18 20.25 18H31.5M28.5 22.5H30.75C31.5784 22.5 32.25 23.1716 32.25 24V30C32.25 30.8284 31.5784 31.5 30.75 31.5H28.5M27.75 27.75C27.75 26.9216 27.0784 26.25 26.25 26.25H24.75C23.9216 26.25 23.25 25.5784 23.25 24.75V22.5M18.75 26.25V29.25M22.5 31.5H24" stroke="#E9201D" stroke-width="2.25" stroke-linecap="round" stroke-linejoin="round"/>
<path d="M5.25 18H14.25" stroke="#E9201D" stroke-width="2.25" stroke-linecap="round" stroke-linejoin="round"/>
<path d="M18.75 4.5V12" stroke="#E9201D" stroke-width="2.25" stroke-linecap="round" stroke-linejoin="round"/>
<path d="M14.25 12V6C14.25 5.17158 13.5784 4.5 12.75 4.5H6.75C5.92158 4.5 5.25 5.17158 5.25 6V12C5.25 12.8284 5.92158 13.5 6.75 13.5H12.75C13.5784 13.5 14.25 12.8284 14.25 12Z" stroke="#E9201D" stroke-width="2.25"/>
<path d="M14.25 30V24C14.25 23.1716 13.5784 22.5 12.75 22.5H6.75C5.92158 22.5 5.25 23.1716 5.25 24V30C5.25 30.8284 5.92158 31.5 6.75 31.5H12.75C13.5784 31.5 14.25 30.8284 14.25 30Z" stroke="#E9201D" stroke-width="2.25"/>
<path d="M32.25 12V6C32.25 5.17158 31.5784 4.5 30.75 4.5H24.75C23.9216 4.5 23.25 5.17158 23.25 6V12C23.25 12.8284 23.9216 13.5 24.75 13.5H30.75C31.5784 13.5 32.25 12.8284 32.25 12Z" stroke="#E9201D" stroke-width="2.25"/>
</svg>
