<svg width="18" height="18" viewBox="0 0 18 18" fill="none" xmlns="http://www.w3.org/2000/svg">
<path d="M10.875 6C10.875 3.92893 9.19605 2.25 7.125 2.25C5.05393 2.25 3.375 3.92893 3.375 6C3.375 8.07105 5.05393 9.75 7.125 9.75C9.19605 9.75 10.875 8.07105 10.875 6Z" stroke="white" stroke-width="1.25" stroke-linecap="round" stroke-linejoin="round"/>
<path d="M1.875 15C1.875 12.1005 4.22551 9.75 7.125 9.75C7.9302 9.75 8.69302 9.93128 9.375 10.2552" stroke="white" stroke-width="1.25" stroke-linecap="round" stroke-linejoin="round"/>
<path d="M11.6625 11.2875L15.3375 14.9625M16.125 13.125C16.125 11.6752 14.9497 10.5 13.5 10.5C12.0503 10.5 10.875 11.6752 10.875 13.125C10.875 14.5747 12.0503 15.75 13.5 15.75C14.9497 15.75 16.125 14.5747 16.125 13.125Z" stroke="white" stroke-width="1.25" stroke-linecap="round" stroke-linejoin="round"/>
</svg>
