<svg width="20" height="20" viewBox="0 0 20 20" fill="none" xmlns="http://www.w3.org/2000/svg">
<path d="M17.4384 2.56037C16.8534 1.97537 16.025 1.74537 15.22 1.94621L4.29269 4.67788C2.83603 5.04205 1.86426 6.29537 1.87509 7.79703C1.88592 9.2987 2.87436 10.5379 4.33603 10.882L8.20769 11.7929L9.11854 15.6637C9.46271 17.1254 10.7018 18.1137 12.2035 18.1245C12.211 18.1245 12.2194 18.1245 12.2269 18.1245C13.7177 18.1245 14.9592 17.1554 15.3217 15.707L18.0535 4.77953C18.2535 3.97537 18.0243 3.1462 17.4384 2.56037ZM16.8401 4.47621L14.1084 15.4037C13.8342 16.4979 12.9502 16.8812 12.211 16.8745C11.5068 16.8695 10.5935 16.4745 10.3352 15.3779L9.41517 11.4687L12.941 7.94204C13.1851 7.69788 13.1851 7.30204 12.941 7.05787C12.6968 6.81371 12.3009 6.81371 12.0568 7.05787L8.53016 10.5845L4.62086 9.66453C3.52336 9.4062 3.12846 8.49205 3.12346 7.78788C3.11846 7.08371 3.50087 6.16371 4.59421 5.89037L15.5217 3.15869C15.6109 3.13619 15.7009 3.12538 15.7893 3.12538C16.0726 3.12538 16.3459 3.23704 16.5534 3.44454C16.8259 3.71621 16.9334 4.10205 16.8401 4.47621Z" fill="white"/>
</svg>
