<svg width="19" height="18" viewBox="0 0 19 18" fill="none" xmlns="http://www.w3.org/2000/svg">
<g clip-path="url(#clip0_7917_338)">
<path d="M18.0001 9.74963C18.1877 9.74963 18.3752 9.56207 18.3752 9.37451V7.12451C18.3752 6.48695 17.8878 5.99951 17.2502 5.99951H14.25V16.4996H17.2499C17.8874 16.4996 18.3749 16.0122 18.3749 15.3746V13.1246C18.3747 13.0252 18.3351 12.9299 18.2648 12.8596C18.1945 12.7893 18.0992 12.7497 17.9998 12.7495C17.606 12.7434 17.2304 12.5827 16.9541 12.3021C16.6778 12.0214 16.5229 11.6434 16.5229 11.2496C16.5229 10.8557 16.6778 10.4777 16.9541 10.1971C17.2304 9.91645 17.606 9.75573 17.9998 9.74963H18.0001Z" fill="white"/>
<path d="M17.7367 4.87503C17.9243 4.80015 18.0366 4.57515 17.9617 4.38759L17.2115 2.24991C17.0239 1.64979 16.3475 1.34991 15.7866 1.53747L5.13672 5.21235H17.1366C17.3145 5.06434 17.5178 4.95003 17.7367 4.87503Z" fill="white"/>
<path d="M1.125 7.125V9.375C1.125 9.6 1.27512 9.75012 1.50012 9.75012C1.69905 9.74704 1.89661 9.78356 2.08129 9.85755C2.26597 9.93155 2.43409 10.0415 2.57586 10.1811C2.71762 10.3207 2.83021 10.4871 2.90705 10.6706C2.9839 10.8541 3.02348 11.0511 3.02348 11.2501C3.02348 11.449 2.9839 11.646 2.90705 11.8295C2.83021 12.013 2.71762 12.1794 2.57586 12.319C2.43409 12.4586 2.26597 12.5686 2.08129 12.6426C1.89661 12.7166 1.69905 12.7531 1.50012 12.75C1.27512 12.75 1.125 12.9001 1.125 13.1251V15.3751C1.125 16.0127 1.61244 16.5001 2.25 16.5001H13.5V6H2.25C1.61388 6 1.125 6.48744 1.125 7.125ZM5.625 8.99988H7.875C8.1 8.99988 8.25012 9.15 8.25012 9.375C8.25012 9.6 8.1 9.75012 7.875 9.75012H5.625C5.4 9.75012 5.24988 9.6 5.24988 9.375C5.24988 9.15 5.4 8.99988 5.625 8.99988ZM5.625 10.8748H10.4998C10.7248 10.8748 10.8749 11.0249 10.8749 11.2499C10.8749 11.4749 10.7248 11.625 10.4998 11.625H5.625C5.4 11.625 5.24988 11.4749 5.24988 11.2499C5.24988 11.0249 5.4 10.8748 5.625 10.8748ZM5.625 12.7496H10.4998C10.7248 12.7496 10.8749 12.8998 10.8749 13.1248C10.8749 13.3498 10.7248 13.4999 10.4998 13.4999H5.625C5.4 13.4999 5.24988 13.3498 5.24988 13.1248C5.24988 12.8998 5.4 12.75 5.625 12.75V12.7496Z" fill="white"/>
</g>
<defs>
<clipPath id="clip0_7917_338">
<rect width="18" height="18" fill="white" transform="translate(0.75)"/>
</clipPath>
</defs>
</svg>
