<svg width="25" height="24" viewBox="0 0 25 24" fill="none" xmlns="http://www.w3.org/2000/svg">
<path d="M10.9873 13.75H14.415C16.92 13.75 18.9512 15.7812 18.9512 18.2861C18.9509 19.3706 18.0718 20.2498 16.9873 20.25H8.41504C7.33053 20.2498 6.45141 19.3707 6.45117 18.2861C6.45117 15.7812 8.48232 13.75 10.9873 13.75ZM6.9873 12.75H7.0625C5.33129 13.9794 4.20117 16.0005 4.20117 18.2861C4.20121 18.6155 4.24077 18.936 4.3125 19.2441C3.27573 19.1905 2.4514 18.3362 2.45117 17.2861C2.45117 14.7812 4.48231 12.75 6.9873 12.75ZM18.415 12.75C20.92 12.75 22.9512 14.7812 22.9512 17.2861C22.9509 18.3365 22.1261 19.191 21.0889 19.2441C21.1606 18.9359 21.2011 18.6155 21.2012 18.2861C21.2012 16.0005 20.0711 13.9794 18.3398 12.75H18.415ZM12.7012 4.75C14.4961 4.75 15.9512 6.20507 15.9512 8C15.9512 9.79496 14.4961 11.25 12.7012 11.25C10.9062 11.25 9.45117 9.79496 9.45117 8C9.45117 6.20507 10.9062 4.75 12.7012 4.75ZM8.70117 3.75C8.85952 3.75 9.01493 3.76238 9.16699 3.78418C7.96528 4.79267 7.20117 6.30722 7.20117 8C7.20117 8.72769 7.34446 9.42227 7.60156 10.0586C6.34799 9.60783 5.45117 8.40885 5.45117 7C5.45117 5.20507 6.90624 3.75 8.70117 3.75ZM16.7012 3.75C18.4961 3.75 19.9512 5.20507 19.9512 7C19.9512 8.40918 19.0538 9.60808 17.7998 10.0586C18.057 9.42218 18.2012 8.72782 18.2012 8C18.2012 6.30696 17.4364 4.79267 16.2344 3.78418C16.3867 3.76229 16.5425 3.75 16.7012 3.75Z" fill="#E9201D" stroke="#E9201D"/>
</svg>
