<svg width="21" height="20" viewBox="0 0 21 20" fill="none" xmlns="http://www.w3.org/2000/svg">
<path d="M12.5833 6.66667C12.5833 4.36548 10.7178 2.5 8.41667 2.5C6.11548 2.5 4.25 4.36548 4.25 6.66667C4.25 8.96783 6.11548 10.8333 8.41667 10.8333C10.7178 10.8333 12.5833 8.96783 12.5833 6.66667Z" stroke="white" stroke-width="1.5" stroke-linecap="round" stroke-linejoin="round"/>
<path d="M2.58398 16.6663C2.58398 13.4447 5.19566 10.833 8.41732 10.833C9.31198 10.833 10.1596 11.0344 10.9173 11.3943" stroke="white" stroke-width="1.5" stroke-linecap="round" stroke-linejoin="round"/>
<path d="M13.459 12.542L17.5423 16.6253M18.4173 14.5837C18.4173 12.9728 17.1115 11.667 15.5007 11.667C13.8898 11.667 12.584 12.9728 12.584 14.5837C12.584 16.1945 13.8898 17.5003 15.5007 17.5003C17.1115 17.5003 18.4173 16.1945 18.4173 14.5837Z" stroke="white" stroke-width="1.5" stroke-linecap="round" stroke-linejoin="round"/>
</svg>
