<svg width="25" height="24" viewBox="0 0 25 24" fill="none" xmlns="http://www.w3.org/2000/svg">
<path d="M15.7012 8C15.7012 9.65685 14.3581 11 12.7012 11C11.0443 11 9.70117 9.65685 9.70117 8C9.70117 6.34315 11.0443 5 12.7012 5C14.3581 5 15.7012 6.34315 15.7012 8Z" stroke="#8D9CDC" stroke-width="1.125" stroke-linecap="round" stroke-linejoin="round"/>
<path d="M16.7012 4C18.358 4 19.7012 5.34315 19.7012 7C19.7012 8.22309 18.9692 9.27523 17.9195 9.7423" stroke="#8D9CDC" stroke-width="1.125" stroke-linecap="round" stroke-linejoin="round"/>
<path d="M14.4155 14H10.9869C8.61995 14 6.70117 15.9188 6.70117 18.2857C6.70117 19.2325 7.46868 20 8.41545 20H16.9869C17.9337 20 18.7012 19.2325 18.7012 18.2857C18.7012 15.9188 16.7824 14 14.4155 14Z" stroke="#8D9CDC" stroke-width="1.125" stroke-linecap="round" stroke-linejoin="round"/>
<path d="M18.4121 13C20.779 13 22.6978 14.9188 22.6978 17.2857C22.6978 18.2325 21.9303 19 20.9835 19" stroke="#8D9CDC" stroke-width="1.125" stroke-linecap="round" stroke-linejoin="round"/>
<path d="M8.70117 4C7.04432 4 5.70117 5.34315 5.70117 7C5.70117 8.22309 6.4331 9.27523 7.48285 9.7423" stroke="#8D9CDC" stroke-width="1.125" stroke-linecap="round" stroke-linejoin="round"/>
<path d="M4.41546 19C3.46868 19 2.70117 18.2325 2.70117 17.2857C2.70117 14.9188 4.61995 13 6.98688 13" stroke="#8D9CDC" stroke-width="1.125" stroke-linecap="round" stroke-linejoin="round"/>
</svg>
