<svg width="19" height="18" viewBox="0 0 19 18" fill="none" xmlns="http://www.w3.org/2000/svg">
<path d="M17.25 5.67004V12.33C17.25 12.804 16.7017 13.0666 16.3319 12.7703L14.709 11.4675C14.6558 11.4248 14.625 11.3602 14.625 11.2919V6.70807C14.625 6.63982 14.6558 6.57522 14.709 6.53247L16.3319 5.22968C16.7017 4.93343 17.25 5.19604 17.25 5.67004ZM13.5 12V6C13.5 4.5 12.75 3.75 11.25 3.75H4.5C3 3.75 2.25 4.5 2.25 6V12C2.25 13.5 3 14.25 4.5 14.25H11.25C12.75 14.25 13.5 13.5 13.5 12Z" fill="white"/>
</svg>
